<?xml version="1.0" encoding="UTF-8" standalone="no"?>
<svg
   xmlns:dc="http://purl.org/dc/elements/1.1/"
   xmlns:cc="http://creativecommons.org/ns#"
   xmlns:rdf="http://www.w3.org/1999/02/22-rdf-syntax-ns#"
   xmlns:svg="http://www.w3.org/2000/svg"
   xmlns="http://www.w3.org/2000/svg"
   viewBox="0 0 6753.3335 4220"
   height="4220"
   width="6753.3335"
   xml:space="preserve"
   id="svg2"
   version="1.1"><metadata
     id="metadata8"><rdf:RDF><cc:Work
         rdf:about=""><dc:format>image/svg+xml</dc:format><dc:type
           rdf:resource="http://purl.org/dc/dcmitype/StillImage" /></cc:Work></rdf:RDF></metadata><defs
     id="defs6"><clipPath
       id="clipPath78"
       clipPathUnits="userSpaceOnUse"><path
         id="path76"
         d="M 0,3165 H 5065 V 0 H 0 Z" /></clipPath></defs><g
     transform="matrix(1.3333333,0,0,-1.3333333,0,4220)"
     id="g10"><g
       transform="translate(3881.7813,2913.9229)"
       id="g12"><path
         id="path14"
         style="fill:none;stroke:#bdc5d1;stroke-width:10;stroke-linecap:butt;stroke-linejoin:miter;stroke-miterlimit:10;stroke-dasharray:none;stroke-opacity:1"
         d="m 0,0 -882.322,-129.402 546.937,-969.625 z" /></g><g
       transform="translate(2359.854,2242.7449)"
       id="g16"><path
         id="path18"
         style="fill:none;stroke:#bdc5d1;stroke-width:10;stroke-linecap:butt;stroke-linejoin:miter;stroke-miterlimit:10;stroke-dasharray:none;stroke-opacity:1"
         d="M 0,0 2244.296,325.066 1521.927,683.997 Z" /></g><g
       transform="translate(4624.7363,1793.8444)"
       id="g20"><path
         id="path22"
         style="fill:none;stroke:#bdc5d1;stroke-width:10;stroke-linecap:butt;stroke-linejoin:miter;stroke-miterlimit:10;stroke-dasharray:none;stroke-opacity:1"
         d="M 0,0 -742.955,1120.078 -448.848,-846.203 Z" /></g><g
       transform="translate(4624.7891,2567.8108)"
       id="g24"><path
         id="path26"
         style="fill:none;stroke:#bdc5d1;stroke-width:10;stroke-linecap:butt;stroke-linejoin:miter;stroke-miterlimit:10;stroke-dasharray:none;stroke-opacity:1"
         d="m 0,0 -1078.393,-752.915 -696.57,-733.1 278.628,-799.766 z" /></g><g
       transform="translate(4268.7646,276.5921)"
       id="g28"><path
         id="path30"
         style="fill:none;stroke:#bdc5d1;stroke-width:10;stroke-linecap:butt;stroke-linejoin:miter;stroke-miterlimit:10;stroke-dasharray:none;stroke-opacity:1"
         d="M 0,0 -722.369,1538.304 -1609.85,1434.696 0,0 -92.876,671.049 -1140.311,5.438 Z" /></g><g
       transform="translate(4624.7891,2567.8108)"
       id="g32"><path
         id="path34"
         style="fill:none;stroke:#bdc5d1;stroke-width:10;stroke-linecap:butt;stroke-linejoin:miter;stroke-miterlimit:10;stroke-dasharray:none;stroke-opacity:1"
         d="m 0,0 -2259.982,-325.066 1181.589,-427.849 1078.34,-21.051 z" /></g><g
       transform="translate(1807.5515,834.1261)"
       id="g36"><path
         id="path38"
         style="fill:none;stroke:#bdc5d1;stroke-width:10;stroke-linecap:butt;stroke-linejoin:miter;stroke-miterlimit:10;stroke-dasharray:none;stroke-opacity:1"
         d="M 0,0 2461.213,-557.534 2817.185,959.718 -469.54,180.592 Z" /></g><g
       transform="translate(2849.8262,1081.7954)"
       id="g40"><path
         id="path42"
         style="fill:none;stroke:#bdc5d1;stroke-width:10;stroke-linecap:butt;stroke-linejoin:miter;stroke-miterlimit:10;stroke-dasharray:none;stroke-opacity:1"
         d="m 0,0 -190.912,629.493 -521.137,299.267 -423.102,-402.876 92.876,-773.553 z" /></g><g
       transform="translate(760.117,2108.5908)"
       id="g44"><path
         id="path46"
         style="fill:none;stroke:#bdc5d1;stroke-width:10;stroke-linecap:butt;stroke-linejoin:miter;stroke-miterlimit:10;stroke-dasharray:none;stroke-opacity:1"
         d="m 0,0 954.559,-500.911 1135.15,-525.884 278.628,-799.766 -2280.414,-0.953 959.512,553.049 z" /></g><g
       transform="translate(316.3763,2908.7688)"
       id="g48"><path
         id="path50"
         style="fill:none;stroke:#bdc5d1;stroke-width:10;stroke-linecap:butt;stroke-linejoin:miter;stroke-miterlimit:10;stroke-dasharray:none;stroke-opacity:1"
         d="m 0,0 3565.405,5.154 -1222.867,-1202.635 -294.107,531.457 -763.647,392.143 z" /></g><g
       transform="translate(2359.854,2242.7449)"
       id="g52"><path
         id="path54"
         style="fill:none;stroke:#bdc5d1;stroke-width:10;stroke-linecap:butt;stroke-linejoin:miter;stroke-miterlimit:10;stroke-dasharray:none;stroke-opacity:1"
         d="m 0,0 -758.693,392.143 -748.168,-46.438 -92.876,-479.859 z" /></g><g
       transform="translate(301.3101,570.5648)"
       id="g56"><path
         id="path58"
         style="fill:none;stroke:#bdc5d1;stroke-width:10;stroke-linecap:butt;stroke-linejoin:miter;stroke-miterlimit:10;stroke-dasharray:none;stroke-opacity:1"
         d="M 0,0 546.729,-289.488 1036.702,444.154 438.168,526.71 Z" /></g><g
       transform="translate(760.117,2108.5908)"
       id="g60"><path
         id="path62"
         style="fill:none;stroke:#bdc5d1;stroke-width:10;stroke-linecap:butt;stroke-linejoin:miter;stroke-miterlimit:10;stroke-dasharray:none;stroke-opacity:1"
         d="m 0,0 -20.639,-1011.316 -423.102,1811.494 -10.113,-2338.204 1031.749,444.153 263.149,1620.17 z" /></g><g
       transform="translate(852.993,2588.45)"
       id="g64"><path
         id="path66"
         style="fill:none;stroke:#bdc5d1;stroke-width:10;stroke-linecap:butt;stroke-linejoin:miter;stroke-miterlimit:10;stroke-dasharray:none;stroke-opacity:1"
         d="M 0,0 -536.617,320.319 -92.876,-479.859 -551.683,-2017.885 2275.461,-2306.42 2693.403,-773.554 1511.814,-345.705 2146.467,196.071 748.168,46.438 Z" /></g><g
       transform="translate(2359.854,2242.7449)"
       id="g68"><path
         id="path70"
         style="fill:none;stroke:#bdc5d1;stroke-width:10;stroke-linecap:butt;stroke-linejoin:miter;stroke-miterlimit:10;stroke-dasharray:none;stroke-opacity:1"
         d="M 0,0 -222.077,-232.19 -763.647,392.143 -650.132,-635.065 485.019,-1160.949 639.606,541.776" /></g><g
       id="g72"><g
         clip-path="url(#clipPath78)"
         id="g74"><g
           transform="translate(2179.2617,2010.5551)"
           id="g80"><path
             id="path82"
             style="fill:#bdc5d1;fill-opacity:1;fill-rule:nonzero;stroke:none"
             d="m 0,0 c 0,-25.647 -20.791,-46.438 -46.438,-46.438 -25.647,0 -46.438,20.791 -46.438,46.438 0,25.647 20.791,46.438 46.438,46.438 C -20.791,46.438 0,25.647 0,0" /></g><g
           transform="translate(894.4776,2588.45)"
           id="g84"><path
             id="path86"
             style="fill:#bdc5d1;fill-opacity:1;fill-rule:nonzero;stroke:none"
             d="m 0,0 c 0,-25.647 -20.791,-46.438 -46.438,-46.438 -25.647,0 -46.438,20.791 -46.438,46.438 0,25.647 20.791,46.438 46.438,46.438 C -20.791,46.438 0,25.647 0,0" /></g><g
           transform="translate(3587.8806,1814.8962)"
           id="g88"><path
             id="path90"
             style="fill:#bdc5d1;fill-opacity:1;fill-rule:nonzero;stroke:none"
             d="m 0,0 c 0,-25.647 -20.791,-46.438 -46.438,-46.438 -25.647,0 -46.438,20.791 -46.438,46.438 0,25.647 20.791,46.438 46.438,46.438 C -20.791,46.438 0,25.647 0,0" /></g><g
           transform="translate(1756.1602,1607.6797)"
           id="g92"><path
             id="path94"
             style="fill:#bdc5d1;fill-opacity:1;fill-rule:nonzero;stroke:none"
             d="m 0,0 c 0,-25.647 -20.791,-46.438 -46.438,-46.438 -25.647,0 -46.438,20.791 -46.438,46.438 0,25.647 20.791,46.438 46.438,46.438 C -20.791,46.438 0,25.647 0,0" /></g><g
           transform="translate(3169.9387,282.0301)"
           id="g96"><path
             id="path98"
             style="fill:#bdc5d1;fill-opacity:1;fill-rule:nonzero;stroke:none"
             d="m 0,0 c 0,-25.647 -20.791,-46.438 -46.438,-46.438 -25.647,0 -46.438,20.791 -46.438,46.438 0,25.647 20.791,46.438 46.438,46.438 C -20.791,46.438 0,25.647 0,0" /></g><g
           transform="translate(1849.0361,834.1261)"
           id="g100"><path
             id="path102"
             style="fill:#bdc5d1;fill-opacity:1;fill-rule:nonzero;stroke:none"
             d="m 0,0 c 0,-25.647 -20.791,-46.438 -46.438,-46.438 -25.647,0 -46.438,20.791 -46.438,46.438 0,25.647 20.791,46.438 46.438,46.438 C -20.791,46.438 0,25.647 0,0" /></g><g
           transform="translate(780.9625,1097.2747)"
           id="g104"><path
             id="path106"
             style="fill:#bdc5d1;fill-opacity:1;fill-rule:nonzero;stroke:none"
             d="m 0,0 c 0,-25.647 -20.791,-46.438 -46.438,-46.438 -25.647,0 -46.438,20.791 -46.438,46.438 0,25.647 20.791,46.438 46.438,46.438 C -20.791,46.438 0,25.647 0,0" /></g><g
           transform="translate(4310.249,276.5921)"
           id="g108"><path
             id="path110"
             style="fill:#bdc5d1;fill-opacity:1;fill-rule:nonzero;stroke:none"
             d="m 0,0 c 0,-25.647 -20.791,-46.438 -46.438,-46.438 -25.647,0 -46.438,20.791 -46.438,46.438 0,25.647 20.791,46.438 46.438,46.438 C -20.791,46.438 0,25.647 0,0" /></g><g
           transform="translate(2426.9309,2242.7449)"
           id="g112"><path
             id="path114"
             style="fill:#bdc5d1;fill-opacity:1;fill-rule:nonzero;stroke:none"
             d="m 0,0 c 0,-37.046 -30.031,-67.077 -67.077,-67.077 -37.046,0 -67.077,30.031 -67.077,67.077 0,37.046 30.031,67.077 67.077,67.077 C -30.031,67.077 0,37.046 0,0" /></g><g
           transform="translate(3943.905,2913.9229)"
           id="g116"><path
             id="path118"
             style="fill:#bdc5d1;fill-opacity:1;fill-rule:nonzero;stroke:none"
             d="m 0,0 c 0,-37.046 -30.031,-67.077 -67.077,-67.077 -37.046,0 -67.077,30.031 -67.077,67.077 0,37.046 30.031,67.077 67.077,67.077 C -30.031,67.077 0,37.046 0,0" /></g><g
           transform="translate(1663.2842,2634.8879)"
           id="g120"><path
             id="path122"
             style="fill:#bdc5d1;fill-opacity:1;fill-rule:nonzero;stroke:none"
             d="m 0,0 c 0,-37.046 -30.031,-67.077 -67.077,-67.077 -37.046,0 -67.077,30.031 -67.077,67.077 0,37.046 30.031,67.077 67.077,67.077 C -30.031,67.077 0,37.046 0,0" /></g><g
           transform="translate(4686.8604,1793.8444)"
           id="g124"><path
             id="path126"
             style="fill:#bdc5d1;fill-opacity:1;fill-rule:nonzero;stroke:none"
             d="m 0,0 c 0,-37.046 -30.032,-67.077 -67.077,-67.077 -37.046,0 -67.077,30.031 -67.077,67.077 0,37.046 30.031,67.077 67.077,67.077 C -30.032,67.077 0,37.046 0,0" /></g><g
           transform="translate(378.5,2908.7688)"
           id="g128"><path
             id="path130"
             style="fill:#bdc5d1;fill-opacity:1;fill-rule:nonzero;stroke:none"
             d="m 0,0 c 0,-37.046 -30.031,-67.077 -67.077,-67.077 -37.046,0 -67.077,30.031 -67.077,67.077 0,37.046 30.031,67.077 67.077,67.077 C -30.031,67.077 0,37.046 0,0" /></g><g
           transform="translate(4238.0122,947.6412)"
           id="g132"><path
             id="path134"
             style="fill:#bdc5d1;fill-opacity:1;fill-rule:nonzero;stroke:none"
             d="m 0,0 c 0,-37.046 -30.031,-67.077 -67.077,-67.077 -37.046,0 -67.077,30.031 -67.077,67.077 0,37.046 30.031,67.077 67.077,67.077 C -30.031,67.077 0,37.046 0,0" /></g><g
           transform="translate(822.2407,2108.5908)"
           id="g136"><path
             id="path138"
             style="fill:#bdc5d1;fill-opacity:1;fill-rule:nonzero;stroke:none"
             d="m 0,0 c 0,-37.046 -30.031,-67.077 -67.077,-67.077 -37.046,0 -67.077,30.031 -67.077,67.077 0,37.046 30.031,67.077 67.077,67.077 C -30.031,67.077 0,37.046 0,0" /></g><g
           transform="translate(1400.1356,1014.7183)"
           id="g140"><path
             id="path142"
             style="fill:#bdc5d1;fill-opacity:1;fill-rule:nonzero;stroke:none"
             d="m 0,0 c 0,-37.046 -30.031,-67.077 -67.077,-67.077 -37.046,0 -67.077,30.031 -67.077,67.077 0,37.046 30.031,67.077 67.077,67.077 C -30.031,67.077 0,37.046 0,0" /></g><g
           transform="translate(915.1167,281.0771)"
           id="g144"><path
             id="path146"
             style="fill:#bdc5d1;fill-opacity:1;fill-rule:nonzero;stroke:none"
             d="m 0,0 c 0,-37.046 -30.031,-67.077 -67.077,-67.077 -37.046,0 -67.077,30.031 -67.077,67.077 0,37.046 30.031,67.077 67.077,67.077 C -30.031,67.077 0,37.046 0,0" /></g><g
           transform="translate(2716.0847,1711.288)"
           id="g148"><path
             id="path150"
             style="fill:#bdc5d1;fill-opacity:1;fill-rule:nonzero;stroke:none"
             d="m 0,0 c 0,-31.574 -25.596,-57.17 -57.17,-57.17 -31.575,0 -57.171,25.596 -57.171,57.17 0,31.574 25.596,57.17 57.171,57.17 C -25.596,57.17 0,31.574 0,0" /></g><g
           transform="translate(2902.0432,1081.7954)"
           id="g152"><path
             id="path154"
             style="fill:#bdc5d1;fill-opacity:1;fill-rule:nonzero;stroke:none"
             d="m 0,0 c 0,-31.574 -25.596,-57.17 -57.17,-57.17 -31.575,0 -57.171,25.596 -57.171,57.17 0,31.574 25.596,57.17 57.171,57.17 C -25.596,57.17 0,31.574 0,0" /></g><g
           transform="translate(3051.6765,2784.5212)"
           id="g156"><path
             id="path158"
             style="fill:#bdc5d1;fill-opacity:1;fill-rule:nonzero;stroke:none"
             d="m 0,0 c 0,-31.574 -25.596,-57.17 -57.17,-57.17 -31.575,0 -57.171,25.596 -57.171,57.17 0,31.574 25.596,57.17 57.171,57.17 C -25.596,57.17 0,31.574 0,0" /></g><g
           transform="translate(4656.3667,2567.8108)"
           id="g160"><path
             id="path162"
             style="fill:#bdc5d1;fill-opacity:1;fill-rule:nonzero;stroke:none"
             d="m 0,0 c 0,-31.574 -25.596,-57.17 -57.17,-57.17 -31.575,0 -57.17,25.596 -57.17,57.17 0,31.574 25.595,57.17 57.17,57.17 C -25.596,57.17 0,31.574 0,0" /></g><g
           transform="translate(358.4804,570.5648)"
           id="g164"><path
             id="path166"
             style="fill:#bdc5d1;fill-opacity:1;fill-rule:nonzero;stroke:none"
             d="m 0,0 c 0,-31.574 -25.596,-57.17 -57.17,-57.17 -31.575,0 -57.171,25.596 -57.171,57.17 0,31.574 25.596,57.17 57.171,57.17 C -25.596,57.17 0,31.574 0,0" /></g></g></g></g></svg>